# xmcd
#
# Track frame offsets:
#	182
#	17105
#	32710
#	43142
#
# Disc length: 607 seconds
#
# Revision: 2
# Processed by: cddbd v1.5.2PL0 Copyright (c) Steve Scherf et al.
# Submitted via: audiograbber 1.83.01
#
DISCID=2c025d04
DTITLE=Various Artist - SIGNAL IDUNA - Willkommen An Bord
DYEAR=1999
DGENRE=Pop
TTITLE0=Robert Miles - Children
TTITLE1=Korgies - Everybody Needs
TTITLE2=Sam Cooke - What A Wonderful World
TTITLE3=Various Artist - Werbejingle SIGNAL IDUNA Gruppe
EXTD=
EXTT0=
EXTT1=
EXTT2=
EXTT3=
PLAYORDER=
